<!-- Generated by IcoMoon.io -->
<svg version="1.1" xmlns="http://www.w3.org/2000/svg" width="32" height="32" viewBox="0 0 32 32">
<title>cplusplus</title>
<path d="M29.859 8c-0.223-0.387-0.531-0.724-0.869-0.92l-11.755-6.787c-0.679-0.392-1.787-0.392-2.464 0l-11.757 6.787c-0.677 0.391-1.231 1.351-1.231 2.133v13.573c0 0.392 0.139 0.827 0.361 1.213s0.531 0.724 0.869 0.92l11.755 6.787c0.677 0.391 1.787 0.391 2.464 0l11.755-6.787c0.339-0.196 0.647-0.533 0.869-0.92s0.36-0.821 0.36-1.213v-13.573c0.004-0.392-0.133-0.827-0.357-1.213zM16 25.48c-5.227 0-9.479-4.253-9.479-9.48s4.253-9.48 9.48-9.48c3.487 0.007 6.534 1.89 8.184 4.693l0.024 0.044-4.101 2.373c-0.837-1.426-2.361-2.37-4.106-2.373h-0c-2.618 0.002-4.74 2.124-4.743 4.742v0c0.004 2.617 2.124 4.737 4.741 4.74h0c1.745-0.004 3.269-0.946 4.095-2.348l0.012-0.022 4.104 2.373c-1.675 2.848-4.722 4.731-8.21 4.737h-0.001zM25.48 16.527h-1.053v1.053h-1.053v-1.053h-1.053v-1.053h1.053v-1.053h1.053v1.053h1.053zM29.429 16.527h-1.053v1.053h-1.053v-1.053h-1.053v-1.053h1.053v-1.053h1.053v1.053h1.053z"></path>
</svg>
